<?xml version="1.0" encoding="UTF-8" standalone="no"?>
<!DOCTYPE svg PUBLIC "-//W3C//DTD SVG 1.1//EN" "http://www.w3.org/Graphics/SVG/1.1/DTD/svg11.dtd">
<svg width="100%" height="100%" viewBox="0 0 1658 1588" version="1.1" xmlns="http://www.w3.org/2000/svg" xmlns:xlink="http://www.w3.org/1999/xlink" xml:space="preserve" xmlns:serif="http://www.serif.com/" style="fill-rule:evenodd;clip-rule:evenodd;stroke-linejoin:round;stroke-miterlimit:2;">
    <g id="Artboard2" transform="matrix(1,0,0,1,-168.863,-233.676)">
        <rect x="168.863" y="233.676" width="1657.35" height="1587.51" style="fill:none;"/>
        <g transform="matrix(0.99896,0.0455879,-0.0455879,0.99896,73.3473,-87.9085)">
            <path d="M1631.96,1091.32C1631.99,1090.97 1712.93,551.468 1311.19,489.319C1093.64,455.665 978.804,558.373 926.151,606.995C1001.71,631.781 1066.02,661.232 1110.07,688.695C1146.43,711.367 1154.92,731.001 1132.56,742.773C1124.61,746.955 1122.84,747.016 1082.38,740.011C970.194,720.589 757.228,675.386 668.013,754.178C626.597,790.751 573.008,855.321 511.186,946.265C552.072,948.009 767.558,1027.32 606.563,1062.04C572.532,1069.38 467.918,1076.86 436.739,1069.79C365.831,1180.51 284.019,1350.7 242.458,1419.01C231.101,1437.67 215.085,1473.26 203.578,1471.64C183.89,1468.87 175.328,1435.21 182.605,1401.72C221.976,1220.48 392.083,759.561 611.452,608.174C645.091,584.962 686.824,574.717 732.11,573.443C820.356,455.57 1020.65,263.371 1359.17,326.963C1595.76,371.405 1900.72,633.061 1709.98,1111.79C1684.83,1174.9 1645.73,1240.41 1624.63,1215.79C1614.25,1203.67 1631.87,1092.81 1631.96,1091.32ZM280.632,1597.45C285.008,1588.66 317.351,1586.26 340.102,1584.47C430.073,1577.37 573.164,1551.95 585.077,1545.79C599.996,1538.07 741.156,1321.96 760,1315C786.51,1305.21 1018.53,1348.75 1035.08,1340C1057.05,1328.39 1208.48,1066.24 1250,1034.31C1283.84,1008.29 1519.3,1184.39 1308.69,1750.75C1294.36,1789.29 1266.48,1845.05 1241.77,1827.74C1229.4,1819.07 1226.62,1811.08 1237.39,1723.97C1255.86,1574.74 1307.85,1321.91 1261.23,1280.48C1250.9,1271.3 1150.5,1455.93 1107.24,1487.71C1101.65,1491.82 1068.34,1488.92 1026.22,1483.65C944.689,1473.44 830.181,1454.36 820,1460C807.811,1466.76 667.986,1693.08 634.923,1694.22C617.25,1694.82 427.669,1671.92 333.677,1644.67C290.454,1632.14 270.162,1618.48 280.632,1597.45Z"/>
        </g>
    </g>
</svg>
